PathFileType	4	(X/Y/Z)	C:\Git\research_data\Projects\torsion_deformities_healthy_kinematics\simulations\P01\pre\dynamic04_l\marker_experimental.trc
DataRate	CameraRate	NumFrames	NumMarkers	Units	OrigDataRate	OrigDataStartFrame	OrigNumFrames
200	200	10	34	mm	200	434	694
Frame#	Time	C7			T10			CLAV			STRN			RBAK			LASI			RASI			SACR			LT1			LT2			LT3			LS1			LS2			LS3			LHEE			LTOE			RT1			RT2			RT3			RS1			RS2			RS3			RHEE			RTOE			LKNE			LANK			RKNE			RANK			LAJC			LKJC			RAJC			RKJC			RHJC			LHJC		
		X1	Y1	Z1	X2	Y2	Z2	X3	Y3	Z3	X4	Y4	Z4	X5	Y5	Z5	X6	Y6	Z6	X7	Y7	Z7	X8	Y8	Z8	X9	Y9	Z9	X10	Y10	Z10	X11	Y11	Z11	X12	Y12	Z12	X13	Y13	Z13	X14	Y14	Z14	X15	Y15	Z15	X16	Y16	Z16	X17	Y17	Z17	X18	Y18	Z18	X19	Y19	Z19	X20	Y20	Z20	X21	Y21	Z21	X22	Y22	Z22	X23	Y23	Z23	X24	Y24	Z24	X25	Y25	Z25	X26	Y26	Z26	X27	Y27	Z27	X28	Y28	Z28	X29	Y29	Z29	X30	Y30	Z30	X31	Y31	Z31	X32	Y32	Z32	X33	Y33	Z33	X34	Y34	Z34	

434	2.165000	709.528015	1011.063232	-304.587646	683.871460	831.986694	-314.977203	827.375610	967.783997	-306.588898	878.168518	841.856812	-311.677643	691.946472	953.954285	-219.289993	805.590881	662.412903	-421.792694	832.747437	672.456543	-213.682938	668.083740	713.341431	-304.959656	766.804993	475.732178	-462.007324	703.416016	403.236298	-462.965790	843.223145	377.697906	-452.605103	659.752319	265.328674	-454.485809	540.072876	297.567902	-449.011780	620.529480	176.942413	-439.026978	461.370941	197.955521	-380.716064	514.515991	64.128922	-379.575287	830.492065	512.623840	-177.493362	793.555481	426.097107	-183.400467	929.446838	452.096954	-210.200775	889.939453	278.062775	-206.825134	808.159912	202.074966	-157.174728	929.450928	193.183151	-231.090149	805.155212	43.554600	-236.289917	945.670898	43.541481	-268.333221	746.561157	320.800232	-451.632904	474.035248	149.834152	-408.756683	881.946228	353.677582	-218.084763	866.337769	41.081688	-215.664948	479.960297	144.469421	-375.816284	758.715210	307.393555	-403.433289	853.839050	46.329964	-249.958176	874.430542	353.514282	-271.385132	762.591302	614.418909	-230.420363	742.780975	607.092214	-382.233514	
435	2.170000	716.203918	1011.998840	-304.254364	690.504150	832.989929	-314.960937	834.048218	968.683838	-306.753448	884.681641	842.720337	-312.036652	698.701050	954.384277	-218.713531	811.865723	663.111694	-422.195465	838.829895	673.707336	-213.033707	674.627319	714.154480	-305.210815	776.174622	477.068024	-462.587585	714.356934	403.248840	-463.000519	854.590637	380.746613	-454.333282	672.987244	267.044525	-454.972626	553.478088	299.781281	-448.505280	633.506287	178.722626	-439.592957	474.564941	199.872742	-379.949860	528.691040	66.812737	-380.846771	835.780640	513.345642	-177.168930	797.934570	427.247772	-182.759018	933.989136	451.601379	-209.686981	891.616760	277.635284	-205.988281	807.826660	202.454544	-158.104065	930.479797	192.328262	-229.571014	805.232239	43.677063	-236.214172	945.592285	43.698513	-267.927948	759.223022	321.729889	-452.387146	487.127930	152.123550	-408.384460	885.457397	353.696899	-217.213959	865.088440	40.996830	-215.668381	493.267609	146.597015	-375.510193	772.204590	308.459839	-404.365814	853.356689	46.452793	-250.199356	877.918152	353.427307	-270.510529	768.711370	615.260947	-229.903582	749.050650	607.535216	-382.412272	
436	2.175000	722.849609	1012.989563	-303.966553	697.108521	834.056152	-314.975525	840.670410	969.654907	-306.968445	891.140015	843.668396	-312.446442	705.407166	954.872803	-218.194321	818.100708	663.926819	-422.691956	844.862549	675.012207	-212.416687	681.151550	715.125488	-305.482117	785.391846	478.611298	-463.171509	725.214661	403.483643	-462.993927	865.813110	384.088745	-456.077820	686.362366	268.782745	-455.402924	566.967102	301.646790	-448.100006	646.870544	180.436188	-440.028107	487.986725	201.257675	-379.150421	543.574951	69.195915	-381.964752	840.740723	514.038208	-176.814896	801.846191	428.433990	-182.235260	938.115967	450.916656	-208.946381	892.835449	277.238251	-205.056885	806.890320	202.853378	-159.283798	931.196045	191.570099	-227.767410	805.254517	43.752052	-236.135956	945.486511	43.867889	-267.513245	771.827942	322.932312	-453.100647	500.681305	153.912811	-407.985596	888.389099	353.631378	-216.291290	863.548462	40.962521	-215.605316	507.020874	148.284683	-375.166534	785.664307	309.847198	-405.267639	852.737183	46.588795	-250.408325	880.945679	353.301147	-269.601013	774.748734	616.178304	-229.447856	755.245153	608.099460	-382.692942	
437	2.180000	729.466187	1014.027527	-303.720978	703.688171	835.176880	-315.017059	847.242676	970.692627	-307.228027	897.551147	844.700073	-312.900330	712.068359	955.415588	-217.730820	824.319824	664.864075	-423.257935	850.861389	676.365967	-211.849182	687.661499	716.245972	-305.768494	794.474304	480.349762	-463.757385	736.007446	403.927704	-462.986084	876.907410	387.706573	-457.785248	699.849304	270.516357	-455.784698	580.500854	303.137238	-447.796722	660.596924	182.054611	-440.340698	501.621979	202.096634	-378.322815	559.090698	71.224487	-382.898743	845.383667	514.697327	-176.439789	805.316162	429.647522	-181.843460	941.847839	450.062469	-207.998093	893.682129	276.877167	-204.063019	805.526855	203.273285	-160.614716	931.661194	190.904099	-225.773666	805.232605	43.792473	-236.053696	945.367004	44.029842	-267.101837	784.391724	324.400330	-453.784515	514.668640	155.175003	-407.561584	890.778870	353.498657	-215.341888	861.816223	40.975006	-215.462585	521.196411	149.506256	-374.786438	799.076599	311.549744	-406.141235	852.023071	46.729908	-250.544830	883.550415	353.151825	-268.681091	780.725523	617.174883	-229.067868	761.392037	608.796640	-383.062865	
438	2.185000	736.054993	1015.104431	-303.514160	710.246765	836.342957	-315.081573	853.766357	971.791077	-307.526062	903.923279	845.812561	-313.391449	718.688843	956.007935	-217.320602	830.547180	665.928284	-423.866730	856.841553	677.762390	-211.348190	694.161560	717.504517	-306.065216	803.441467	482.269318	-464.344818	746.751465	404.566803	-463.016571	887.889893	391.578796	-459.405426	713.417603	272.218842	-456.126709	594.039429	304.231689	-447.593262	674.654663	183.552719	-440.540771	515.458618	202.380585	-377.472839	575.170715	72.865036	-383.629150	849.725952	515.320251	-176.052719	808.380127	430.880676	-181.594391	945.213257	449.064453	-206.866882	894.249207	276.554657	-203.041885	803.924316	203.708649	-161.991409	931.940002	190.322464	-223.693405	805.177002	43.810886	-235.966766	945.244141	44.171379	-266.705139	796.924622	326.125244	-454.450378	529.060242	155.895859	-407.113556	892.678528	353.319366	-214.391998	860.001099	41.026417	-215.237473	535.766541	150.246933	-374.371033	812.419006	313.556793	-406.988586	851.261658	46.868481	-250.582642	885.781555	352.996246	-267.775208	786.664238	618.253410	-228.777929	767.519932	609.637279	-383.507605	
439	2.190000	742.617737	1016.211731	-303.342316	716.787781	837.544739	-315.165070	860.243347	972.943115	-307.856384	910.264893	847.001587	-313.912781	725.273682	956.644592	-216.960449	836.806030	667.122681	-424.490265	862.816711	679.194092	-210.929749	700.655334	718.886902	-306.367950	812.313416	484.354401	-464.934479	757.459656	405.386200	-463.122040	898.774780	395.681091	-460.894318	727.035828	273.864899	-456.437836	607.544800	304.915344	-447.484039	689.009399	184.909409	-440.639404	529.487000	202.104889	-376.606598	591.757751	74.102875	-384.147400	853.788452	515.905640	-175.663208	811.081421	432.126404	-181.495255	948.247498	447.952332	-205.581268	894.630249	276.271088	-202.029861	802.270325	204.149734	-163.309769	932.097900	189.815811	-221.632477	805.098022	43.819031	-235.875427	945.126648	44.284908	-266.333252	809.429810	328.096588	-455.109741	543.824707	156.072906	-406.641235	894.151550	353.115051	-213.467316	858.217957	41.105690	-214.937103	550.701782	150.502563	-373.920685	825.664856	315.852478	-407.811005	850.504028	46.997971	-250.511871	887.697327	352.850403	-266.906189	792.586877	619.414953	-228.591420	773.657432	610.629904	-384.011502	
440	2.195000	749.156372	1017.340454	-303.201538	723.314575	838.772583	-315.263672	866.676147	974.140625	-308.212860	916.584412	848.261047	-314.457245	731.828430	957.320068	-216.646362	843.117798	668.448242	-425.100525	868.799072	680.652405	-210.608093	707.145691	720.376892	-306.673279	821.109924	486.588470	-465.527863	768.141235	406.371460	-463.334167	909.573547	399.986542	-462.216370	740.672913	275.431030	-456.726624	620.982605	305.178650	-447.459991	703.624939	186.107880	-440.648315	543.700500	201.269272	-375.730225	608.804871	74.939034	-384.455170	857.595886	516.453125	-175.280899	813.468689	433.378204	-181.549744	950.990540	446.757782	-204.171967	894.915344	276.025421	-201.062531	800.739746	204.585846	-164.474533	932.198364	189.374573	-219.691772	805.005249	43.827442	-235.780869	945.021912	44.367092	-265.994995	821.903748	330.301666	-455.773315	558.931152	155.713898	-406.142883	895.268555	352.905670	-212.591919	856.579529	41.200016	-214.575867	565.972534	150.278122	-373.434631	838.785339	318.415436	-408.609833	849.803650	47.113457	-250.337677	889.361023	352.727753	-266.094330	798.514198	620.658560	-228.519952	779.831652	611.780308	-384.558342	
441	2.200000	755.672974	1018.481567	-303.087891	729.830261	840.016357	-315.373657	873.067932	975.374390	-308.589508	922.890198	849.583374	-315.017853	738.359131	958.028259	-216.373627	849.500793	669.902710	-425.670654	874.799255	682.126831	-210.394852	713.634644	721.956116	-306.978699	829.849792	488.954132	-466.127075	778.801697	407.508881	-463.677917	920.294250	404.466034	-463.345978	754.299316	276.896118	-457.000763	634.324646	305.016541	-447.509277	718.465393	187.135880	-440.579651	558.095642	199.877640	-374.850006	626.274353	75.386856	-384.562836	861.175415	516.962891	-174.915344	815.593384	434.630035	-181.758026	953.485352	445.512085	-202.670563	895.186401	275.815857	-200.172745	799.483948	205.008026	-165.406097	932.300110	188.989990	-217.960632	804.907288	43.845173	-235.685104	944.936340	44.417889	-265.697601	834.336914	332.724884	-456.450409	574.350586	154.834488	-405.616058	896.103760	352.708191	-211.786972	855.188354	41.296368	-214.172180	581.550598	149.585602	-372.911835	851.751404	321.218994	-409.386505	849.213074	47.211617	-250.076141	890.837585	352.638092	-265.356567	804.465044	621.980381	-228.572475	786.066748	613.090394	-385.131719	
442	2.205000	762.169800	1019.625916	-302.997375	736.337769	841.266052	-315.491699	879.422302	976.634399	-308.980560	929.190125	850.959229	-315.587860	744.872253	958.762573	-216.136993	855.969788	671.480286	-426.176392	880.825745	683.605347	-210.298325	720.123535	723.604858	-307.282959	838.550049	491.433624	-466.734222	789.442566	408.785858	-464.170471	930.940857	409.088226	-464.267914	767.888428	278.241547	-457.266876	647.550537	304.427246	-447.618164	733.497009	187.985596	-440.445648	572.672180	197.937881	-373.972473	644.136536	75.468658	-384.487518	864.556396	517.435608	-174.575760	817.507874	435.876038	-182.116791	955.776123	444.244232	-201.108582	895.513611	275.640198	-199.388733	798.621460	205.410782	-166.046112	932.454041	188.654465	-216.511093	804.811584	43.879662	-235.590927	944.875122	44.439743	-265.446564	846.714478	335.347748	-457.148407	590.057495	153.456223	-405.058105	896.730896	352.535400	-211.069946	854.126343	41.383514	-213.745544	597.411255	148.442123	-372.351257	864.535400	324.231842	-410.142914	848.777100	47.291122	-249.749344	892.189453	352.586975	-264.705872	810.455292	623.373661	-228.754869	792.382959	614.557741	-385.716044	
443	2.210000	768.649292	1020.764343	-302.926117	742.839905	842.511475	-315.614746	885.743347	977.909973	-309.380524	935.491577	852.377930	-316.160736	751.374512	959.516174	-215.930725	862.535095	673.171387	-426.597198	886.884766	685.073975	-210.322830	726.612793	725.302551	-307.586060	847.225952	494.008667	-467.351196	800.061646	410.190948	-464.820435	941.513916	413.819672	-464.977417	781.417297	279.451416	-457.530182	660.648743	303.411072	-447.772827	748.689697	188.653519	-440.258484	587.433655	195.461823	-373.104462	662.367737	75.213120	-384.251373	867.769165	517.871948	-174.270859	819.263916	437.110535	-182.619339	957.906250	442.979279	-199.516861	895.952148	275.496216	-198.732620	798.231812	205.792831	-166.361694	932.700378	188.361801	-215.393539	804.724365	43.936634	-235.501877	944.841736	44.436790	-265.245056	859.017944	338.148346	-457.872253	606.030945	151.603790	-404.468079	897.220459	352.395355	-210.454163	853.447021	41.453693	-213.314407	613.533569	146.867630	-371.753632	877.112427	327.418671	-410.881531	848.526917	47.352821	-249.380753	893.473816	352.575562	-264.151184	816.497053	624.828198	-229.069437	798.795258	616.175219	-386.297208	
